<svg width="50" height="50" viewBox="0 0 50 50" fill="none" xmlns="http://www.w3.org/2000/svg">
<path d="M50 25C50 38.8071 38.8071 50 25 50C11.1929 50 0 38.8071 0 25C0 11.1929 11.1929 0 25 0C38.8071 0 50 11.1929 50 25Z" fill="#747BFF"/>
<path d="M17.192 25.136L16.712 25.296L14.584 22.144H12.632V32.784L14.312 33.36L13.992 34H9.128V33.504L10.632 32.32V22.144H8.728L6.6 25.296L6.12 25.136V21.136L6.984 21.424H16.328L17.192 21.136V25.136Z" fill="white"/>
<path d="M22.8829 34.032C22.4562 34.1173 21.9442 34.16 21.3469 34.16C20.6429 34.16 20.0082 33.9787 19.4429 33.616C18.8882 33.2427 18.4509 32.7413 18.1309 32.112C17.8215 31.4827 17.6669 30.7893 17.6669 30.032C17.6669 29.2107 17.9175 28.4427 18.4189 27.728C18.9202 27.0027 19.5442 26.4267 20.2909 26C21.0482 25.5627 21.7789 25.344 22.4829 25.344C23.4962 25.344 24.2802 25.744 24.8349 26.544C25.4002 27.344 25.6829 28.4 25.6829 29.712H19.7629C19.8269 30.6187 20.0722 31.36 20.4989 31.936C20.9362 32.512 21.5282 32.8 22.2749 32.8C22.9682 32.8 23.9549 32.2613 25.2349 31.184L25.7149 31.792L22.8829 34.032ZM21.5549 26.688C20.4029 26.688 19.8002 27.4773 19.7469 29.056H23.4909C23.3949 28.48 23.2935 28.0427 23.1869 27.744C23.0909 27.4347 22.9149 27.184 22.6589 26.992C22.4135 26.7893 22.0455 26.688 21.5549 26.688Z" fill="white"/>
<path d="M36.1401 34H33.7561L31.2441 30.64L29.4681 32.304L30.9561 33.376L30.6361 34.016H27.1321V33.52L30.7961 30.032L28.4761 27.024L27.0681 26.144L27.3881 25.504H29.7721L32.2521 28.816L33.9641 27.216L32.4761 26.144L32.7961 25.504H36.3001V26L32.7001 29.424L35.0361 32.464L36.4601 33.36L36.1401 34Z" fill="white"/>
<path d="M42.1587 34.032C41.9134 34.1173 41.6147 34.16 41.2627 34.16C40.3774 34.16 39.7267 33.9307 39.3107 33.472C38.9054 33.0027 38.7028 32.2827 38.7028 31.312V26.64H36.9748V25.984L40.0148 22.448H40.6227V25.984H43.5028V26.64H40.6227V31.504C40.6227 32.368 41.0388 32.8 41.8708 32.8C42.0948 32.8 42.3081 32.752 42.5107 32.656C42.7241 32.56 42.9854 32.3893 43.2948 32.144L43.7747 32.752L42.1587 34.032Z" fill="white"/>
<path d="M27.24 24H18.84V23.566L20.156 22.53V14.046L18.7 13.556L18.98 12.996H23.236V13.43L21.906 14.466V23.37H25.518L27.576 20.332L27.996 20.472V24.252L27.24 24Z" fill="white"/>
<path d="M37.0425 24H34.3825V22.782L32.8005 24.028C32.6138 24.1027 32.3805 24.14 32.1005 24.14C31.2979 24.14 30.7145 23.9393 30.3505 23.538C29.9958 23.1367 29.8185 22.656 29.8185 22.096C29.8185 21.76 29.9398 21.4287 30.1825 21.102C30.4252 20.7753 30.7705 20.4673 31.2185 20.178H34.3825V19.282C34.3825 18.6753 34.2192 18.246 33.8925 17.994C33.5752 17.742 33.1365 17.616 32.5765 17.616C31.9978 17.616 31.2885 17.966 30.4485 18.666L30.0285 18.134L32.0445 16.538C32.4179 16.4633 32.8658 16.426 33.3885 16.426C34.2378 16.426 34.8958 16.636 35.3625 17.056C35.8292 17.4667 36.0625 18.0687 36.0625 18.862V22.95L37.3225 23.44L37.0425 24ZM32.5485 22.95C33.1178 22.95 33.7292 22.6887 34.3825 22.166V20.752H31.9045C31.7832 20.9013 31.6945 21.0507 31.6385 21.2C31.5918 21.3493 31.5685 21.5127 31.5685 21.69C31.5685 22.0353 31.6572 22.334 31.8345 22.586C32.0118 22.8287 32.2498 22.95 32.5485 22.95Z" fill="white"/>
</svg>
